<svg width="155" height="32" viewBox="0 0 155 32" fill="none" xmlns="http://www.w3.org/2000/svg">
<path d="M8 11L2 14.4641L2 7.5359L8 11Z" fill="#DEE4FF" fill-opacity="0.15"/>
<path d="M8 20L2 23.4641L2 16.5359L8 20Z" fill="#DEE4FF" fill-opacity="0.13"/>
<path d="M1.46532 15.3655L7.54885 12.0503L7.37814 18.9764L1.46532 15.3655Z" fill="#7886C7"/>
<g clip-path="url(#clip0_3744_30)">
<path d="M20 32.076L34 24.065V8.05701L20 16.067V32.076Z" fill="#2D2C2C"/>
<path d="M23 24.5556V27L29 23.4444V21L23 24.5556Z" fill="#6A75D7"/>
<path d="M20 0.0759964L6 8.057V24.065L20 32.076V16.067L34 8.057L20 0.0759964Z" fill="url(#paint0_linear_3744_30)"/>
</g>
<path d="M41.688 24.128C40.8347 24.128 40.0453 23.9893 39.32 23.712C38.6053 23.424 37.9813 23.024 37.448 22.512C36.9253 21.9893 36.5147 21.3813 36.216 20.688C35.9173 19.9947 35.768 19.232 35.768 18.4C35.768 17.568 35.9173 16.8053 36.216 16.112C36.5147 15.4187 36.9307 14.816 37.464 14.304C37.9973 13.7813 38.6213 13.3813 39.336 13.104C40.0613 12.816 40.8507 12.672 41.704 12.672C42.568 12.672 43.3627 12.8213 44.088 13.12C44.824 13.408 45.448 13.84 45.96 14.416L44.92 15.424C44.4933 14.976 44.0133 14.6453 43.48 14.432C42.9467 14.208 42.376 14.096 41.768 14.096C41.1387 14.096 40.552 14.2027 40.008 14.416C39.4747 14.6293 39.0107 14.928 38.616 15.312C38.2213 15.696 37.912 16.1547 37.688 16.688C37.4747 17.2107 37.368 17.7813 37.368 18.4C37.368 19.0187 37.4747 19.5947 37.688 20.128C37.912 20.6507 38.2213 21.104 38.616 21.488C39.0107 21.872 39.4747 22.1707 40.008 22.384C40.552 22.5973 41.1387 22.704 41.768 22.704C42.376 22.704 42.9467 22.5973 43.48 22.384C44.0133 22.16 44.4933 21.8187 44.92 21.36L45.96 22.368C45.448 22.944 44.824 23.3813 44.088 23.68C43.3627 23.9787 42.5627 24.128 41.688 24.128ZM51.2911 24.096C50.4378 24.096 49.6805 23.9093 49.0191 23.536C48.3578 23.1627 47.8351 22.6507 47.4511 22C47.0671 21.3387 46.8751 20.592 46.8751 19.76C46.8751 18.9173 47.0671 18.1707 47.4511 17.52C47.8351 16.8693 48.3578 16.3627 49.0191 16C49.6805 15.6267 50.4378 15.44 51.2911 15.44C52.1338 15.44 52.8858 15.6267 53.5471 16C54.2191 16.3627 54.7418 16.8693 55.1151 17.52C55.4991 18.16 55.6911 18.9067 55.6911 19.76C55.6911 20.6027 55.4991 21.3493 55.1151 22C54.7418 22.6507 54.2191 23.1627 53.5471 23.536C52.8858 23.9093 52.1338 24.096 51.2911 24.096ZM51.2911 22.752C51.8351 22.752 52.3205 22.6293 52.7471 22.384C53.1845 22.1387 53.5258 21.792 53.7711 21.344C54.0165 20.8853 54.1391 20.3573 54.1391 19.76C54.1391 19.152 54.0165 18.6293 53.7711 18.192C53.5258 17.744 53.1845 17.3973 52.7471 17.152C52.3205 16.9067 51.8351 16.784 51.2911 16.784C50.7471 16.784 50.2618 16.9067 49.8351 17.152C49.4085 17.3973 49.0671 17.744 48.8111 18.192C48.5551 18.6293 48.4271 19.152 48.4271 19.76C48.4271 20.3573 48.5551 20.8853 48.8111 21.344C49.0671 21.792 49.4085 22.1387 49.8351 22.384C50.2618 22.6293 50.7471 22.752 51.2911 22.752ZM68.4234 15.44C69.106 15.44 69.7087 15.5733 70.2314 15.84C70.754 16.1067 71.1594 16.512 71.4474 17.056C71.746 17.6 71.8954 18.288 71.8954 19.12V24H70.3594V19.296C70.3594 18.4747 70.1674 17.856 69.7834 17.44C69.3994 17.024 68.8607 16.816 68.1674 16.816C67.6554 16.816 67.2074 16.9227 66.8234 17.136C66.4394 17.3493 66.1407 17.664 65.9274 18.08C65.7247 18.496 65.6234 19.0133 65.6234 19.632V24H64.0874V19.296C64.0874 18.4747 63.8954 17.856 63.5114 17.44C63.138 17.024 62.5994 16.816 61.8954 16.816C61.394 16.816 60.9514 16.9227 60.5674 17.136C60.1834 17.3493 59.8847 17.664 59.6714 18.08C59.458 18.496 59.3514 19.0133 59.3514 19.632V24H57.8154V15.52H59.2874V17.776L59.0474 17.2C59.314 16.6453 59.7247 16.2133 60.2794 15.904C60.834 15.5947 61.4794 15.44 62.2154 15.44C63.026 15.44 63.7247 15.6427 64.3114 16.048C64.898 16.4427 65.282 17.0453 65.4634 17.856L64.8394 17.6C65.0954 16.9493 65.5434 16.4267 66.1834 16.032C66.8234 15.6373 67.57 15.44 68.4234 15.44ZM79.2176 24.096C78.5136 24.096 77.8683 23.936 77.2816 23.616C76.7056 23.2853 76.2416 22.8 75.8896 22.16C75.5483 21.52 75.3776 20.72 75.3776 19.76C75.3776 18.8 75.543 18 75.8736 17.36C76.215 16.72 76.6736 16.24 77.2496 15.92C77.8363 15.6 78.4923 15.44 79.2176 15.44C80.0496 15.44 80.7856 15.6213 81.4256 15.984C82.0656 16.3467 82.5723 16.8533 82.9456 17.504C83.319 18.144 83.5056 18.896 83.5056 19.76C83.5056 20.624 83.319 21.3813 82.9456 22.032C82.5723 22.6827 82.0656 23.1893 81.4256 23.552C80.7856 23.9147 80.0496 24.096 79.2176 24.096ZM74.7216 27.104V15.52H76.1936V17.808L76.0976 19.776L76.2576 21.744V27.104H74.7216ZM79.0896 22.752C79.6336 22.752 80.119 22.6293 80.5456 22.384C80.983 22.1387 81.3243 21.792 81.5696 21.344C81.8256 20.8853 81.9536 20.3573 81.9536 19.76C81.9536 19.152 81.8256 18.6293 81.5696 18.192C81.3243 17.744 80.983 17.3973 80.5456 17.152C80.119 16.9067 79.6336 16.784 79.0896 16.784C78.5563 16.784 78.071 16.9067 77.6336 17.152C77.207 17.3973 76.8656 17.744 76.6096 18.192C76.3643 18.6293 76.2416 19.152 76.2416 19.76C76.2416 20.3573 76.3643 20.8853 76.6096 21.344C76.8656 21.792 77.207 22.1387 77.6336 22.384C78.071 22.6293 78.5563 22.752 79.0896 22.752ZM89.2599 24.096C88.4065 24.096 87.6492 23.9093 86.9879 23.536C86.3265 23.1627 85.8039 22.6507 85.4199 22C85.0359 21.3387 84.8439 20.592 84.8439 19.76C84.8439 18.9173 85.0359 18.1707 85.4199 17.52C85.8039 16.8693 86.3265 16.3627 86.9879 16C87.6492 15.6267 88.4065 15.44 89.2599 15.44C90.1025 15.44 90.8545 15.6267 91.5159 16C92.1879 16.3627 92.7105 16.8693 93.0839 17.52C93.4679 18.16 93.6599 18.9067 93.6599 19.76C93.6599 20.6027 93.4679 21.3493 93.0839 22C92.7105 22.6507 92.1879 23.1627 91.5159 23.536C90.8545 23.9093 90.1025 24.096 89.2599 24.096ZM89.2599 22.752C89.8039 22.752 90.2892 22.6293 90.7159 22.384C91.1532 22.1387 91.4945 21.792 91.7399 21.344C91.9852 20.8853 92.1079 20.3573 92.1079 19.76C92.1079 19.152 91.9852 18.6293 91.7399 18.192C91.4945 17.744 91.1532 17.3973 90.7159 17.152C90.2892 16.9067 89.8039 16.784 89.2599 16.784C88.7159 16.784 88.2305 16.9067 87.8039 17.152C87.3772 17.3973 87.0359 17.744 86.7799 18.192C86.5239 18.6293 86.3959 19.152 86.3959 19.76C86.3959 20.3573 86.5239 20.8853 86.7799 21.344C87.0359 21.792 87.3772 22.1387 87.8039 22.384C88.2305 22.6293 88.7159 22.752 89.2599 22.752ZM100.312 15.44C101.005 15.44 101.613 15.5733 102.136 15.84C102.669 16.1067 103.085 16.512 103.384 17.056C103.683 17.6 103.832 18.288 103.832 19.12V24H102.296V19.296C102.296 18.4747 102.093 17.856 101.688 17.44C101.293 17.024 100.733 16.816 100.008 16.816C99.4641 16.816 98.9895 16.9227 98.5841 17.136C98.1788 17.3493 97.8641 17.664 97.6401 18.08C97.4268 18.496 97.3201 19.0133 97.3201 19.632V24H95.7841V15.52H97.2561V17.808L97.0161 17.2C97.2935 16.6453 97.7201 16.2133 98.2961 15.904C98.8721 15.5947 99.5441 15.44 100.312 15.44ZM110.451 24.096C109.544 24.096 108.744 23.9093 108.051 23.536C107.368 23.1627 106.835 22.6507 106.451 22C106.077 21.3493 105.891 20.6027 105.891 19.76C105.891 18.9173 106.072 18.1707 106.435 17.52C106.808 16.8693 107.315 16.3627 107.955 16C108.605 15.6267 109.336 15.44 110.147 15.44C110.968 15.44 111.693 15.6213 112.323 15.984C112.952 16.3467 113.443 16.8587 113.795 17.52C114.157 18.1707 114.339 18.9333 114.339 19.808C114.339 19.872 114.333 19.9467 114.323 20.032C114.323 20.1173 114.317 20.1973 114.307 20.272H107.091V19.168H113.507L112.883 19.552C112.893 19.008 112.781 18.5227 112.547 18.096C112.312 17.6693 111.987 17.3387 111.571 17.104C111.165 16.8587 110.691 16.736 110.147 16.736C109.613 16.736 109.139 16.8587 108.723 17.104C108.307 17.3387 107.981 17.6747 107.747 18.112C107.512 18.5387 107.395 19.0293 107.395 19.584V19.84C107.395 20.4053 107.523 20.912 107.779 21.36C108.045 21.7973 108.413 22.1387 108.883 22.384C109.352 22.6293 109.891 22.752 110.499 22.752C111 22.752 111.453 22.6667 111.859 22.496C112.275 22.3253 112.637 22.0693 112.947 21.728L113.795 22.72C113.411 23.168 112.931 23.5093 112.355 23.744C111.789 23.9787 111.155 24.096 110.451 24.096ZM121 15.44C121.693 15.44 122.301 15.5733 122.824 15.84C123.357 16.1067 123.773 16.512 124.072 17.056C124.37 17.6 124.52 18.288 124.52 19.12V24H122.984V19.296C122.984 18.4747 122.781 17.856 122.376 17.44C121.981 17.024 121.421 16.816 120.696 16.816C120.152 16.816 119.677 16.9227 119.272 17.136C118.866 17.3493 118.552 17.664 118.328 18.08C118.114 18.496 118.008 19.0133 118.008 19.632V24H116.472V15.52H117.944V17.808L117.704 17.2C117.981 16.6453 118.408 16.2133 118.984 15.904C119.56 15.5947 120.232 15.44 121 15.44ZM130.274 24.096C129.421 24.096 128.76 23.8667 128.29 23.408C127.821 22.9493 127.586 22.2933 127.586 21.44V13.664H129.122V21.376C129.122 21.8347 129.234 22.1867 129.458 22.432C129.693 22.6773 130.024 22.8 130.45 22.8C130.93 22.8 131.33 22.6667 131.65 22.4L132.13 23.504C131.896 23.7067 131.613 23.856 131.282 23.952C130.962 24.048 130.626 24.096 130.274 24.096ZM126.146 16.784V15.52H131.554V16.784H126.146ZM138.851 24.16C137.315 24.16 136.11 23.728 135.235 22.864C134.371 22 133.939 20.752 133.939 19.12V12.8H136.019V19.04C136.019 20.192 136.265 21.0293 136.755 21.552C137.257 22.0747 137.961 22.336 138.867 22.336C139.774 22.336 140.473 22.0747 140.963 21.552C141.454 21.0293 141.699 20.192 141.699 19.04V12.8H143.747V19.12C143.747 20.752 143.31 22 142.435 22.864C141.571 23.728 140.377 24.16 138.851 24.16ZM146.66 24V12.8H148.74V24H146.66Z" fill="white"/>
<circle cx="153" cy="22" r="2" fill="#6A75D7"/>
<defs>
<linearGradient id="paint0_linear_3744_30" x1="6.18" y1="23.255" x2="34.041" y2="8.782" gradientUnits="userSpaceOnUse">
<stop offset="0.135" stop-color="#7886C7"/>
<stop offset="0.5" stop-color="#A9B5DF"/>
<stop offset="0.845" stop-color="#2D336B"/>
</linearGradient>
<clipPath id="clip0_3744_30">
<rect width="32" height="32" fill="white" transform="translate(4)"/>
</clipPath>
</defs>
</svg>
